<mxfile modified="2021-05-13T22:56:02.797Z" host="app.diagrams.net" agent="5.0 (Macintosh; Intel Mac OS X 10_15_7) AppleWebKit/537.36 (KHTML, like Gecko) Chrome/90.0.4430.93 Safari/537.36" etag="ZpT-gd7OvJ-7CioXKuxE" version="14.6.13" type="github">
  <diagram id="Ht1M8jgEwFfnCIfOTk4-" name="Page-1">
    <mxGraphModel dx="1253" dy="2341" grid="1" gridSize="10" guides="1" tooltips="1" connect="1" arrows="1" fold="1" page="1" pageScale="1" pageWidth="1169" pageHeight="827" math="0" shadow="0">
      <root>
        <mxCell id="0" />
        <mxCell id="1" parent="0" />
        <mxCell id="LaItV2IOD6dqQ0uIoYsW-2" value="VPC" style="outlineConnect=0;gradientColor=none;html=1;whiteSpace=wrap;fontSize=12;fontStyle=0;shape=mxgraph.aws4.group;grIcon=mxgraph.aws4.group_vpc;strokeColor=#879196;fillColor=none;verticalAlign=top;align=left;spacingLeft=30;fontColor=#879196;dashed=0;" parent="1" vertex="1">
          <mxGeometry x="50" y="-750" width="1040" height="740" as="geometry" />
        </mxCell>
        <mxCell id="LaItV2IOD6dqQ0uIoYsW-1" value="" style="outlineConnect=0;dashed=0;verticalLabelPosition=bottom;verticalAlign=top;align=center;html=1;shape=mxgraph.aws3.virtual_private_cloud;fillColor=#F58534;gradientColor=none;" parent="1" vertex="1">
          <mxGeometry x="70" y="-804" width="79.5" height="54" as="geometry" />
        </mxCell>
        <mxCell id="LaItV2IOD6dqQ0uIoYsW-3" value="" style="outlineConnect=0;dashed=0;verticalLabelPosition=bottom;verticalAlign=top;align=center;html=1;shape=mxgraph.aws3.internet_gateway;fillColor=#F58536;gradientColor=none;" parent="1" vertex="1">
          <mxGeometry x="530" y="-827" width="50" height="37" as="geometry" />
        </mxCell>
        <mxCell id="LaItV2IOD6dqQ0uIoYsW-43" value="" style="edgeStyle=orthogonalEdgeStyle;rounded=0;orthogonalLoop=1;jettySize=auto;html=1;strokeWidth=3;entryX=0.5;entryY=0;entryDx=0;entryDy=0;" parent="1" source="LaItV2IOD6dqQ0uIoYsW-5" target="LaItV2IOD6dqQ0uIoYsW-22" edge="1">
          <mxGeometry relative="1" as="geometry">
            <mxPoint x="560" y="-750" as="targetPoint" />
          </mxGeometry>
        </mxCell>
        <mxCell id="LaItV2IOD6dqQ0uIoYsW-5" value="Internet Gateway&lt;br&gt;" style="text;html=1;align=center;verticalAlign=middle;whiteSpace=wrap;rounded=0;labelBorderColor=#000000;" parent="1" vertex="1">
          <mxGeometry x="492.5" y="-790" width="135" height="20" as="geometry" />
        </mxCell>
        <mxCell id="LaItV2IOD6dqQ0uIoYsW-6" value="" style="rounded=1;arcSize=10;dashed=1;strokeColor=#F59D56;fillColor=none;gradientColor=none;dashPattern=8 4;strokeWidth=2;" parent="1" vertex="1">
          <mxGeometry x="80" y="-740" width="240" height="720" as="geometry" />
        </mxCell>
        <mxCell id="LaItV2IOD6dqQ0uIoYsW-7" value="" style="rounded=1;arcSize=10;dashed=1;strokeColor=#F59D56;fillColor=none;gradientColor=none;dashPattern=8 4;strokeWidth=2;" parent="1" vertex="1">
          <mxGeometry x="800" y="-740" width="240" height="730" as="geometry" />
        </mxCell>
        <mxCell id="LaItV2IOD6dqQ0uIoYsW-8" value="us-east-1a Availability Zone&amp;nbsp;" style="text;html=1;align=center;verticalAlign=middle;whiteSpace=wrap;rounded=0;labelBorderColor=#000000;" parent="1" vertex="1">
          <mxGeometry x="121.25" y="-40" width="157.5" height="20" as="geometry" />
        </mxCell>
        <mxCell id="LaItV2IOD6dqQ0uIoYsW-9" value="us-east-1b Availability Zone" style="text;html=1;align=center;verticalAlign=middle;whiteSpace=wrap;rounded=0;labelBorderColor=#000000;" parent="1" vertex="1">
          <mxGeometry x="836.25" y="-30" width="167.5" height="20" as="geometry" />
        </mxCell>
        <mxCell id="LaItV2IOD6dqQ0uIoYsW-10" value="Public subnet 1" style="points=[[0,0],[0.25,0],[0.5,0],[0.75,0],[1,0],[1,0.25],[1,0.5],[1,0.75],[1,1],[0.75,1],[0.5,1],[0.25,1],[0,1],[0,0.75],[0,0.5],[0,0.25]];outlineConnect=0;gradientColor=none;html=1;whiteSpace=wrap;fontSize=12;fontStyle=0;shape=mxgraph.aws4.group;grIcon=mxgraph.aws4.group_security_group;grStroke=0;strokeColor=#248814;fillColor=#E9F3E6;verticalAlign=top;align=left;spacingLeft=30;fontColor=#248814;dashed=0;" parent="1" vertex="1">
          <mxGeometry x="90" y="-730" width="220" height="120" as="geometry" />
        </mxCell>
        <mxCell id="LaItV2IOD6dqQ0uIoYsW-11" value="Public subnet 2" style="points=[[0,0],[0.25,0],[0.5,0],[0.75,0],[1,0],[1,0.25],[1,0.5],[1,0.75],[1,1],[0.75,1],[0.5,1],[0.25,1],[0,1],[0,0.75],[0,0.5],[0,0.25]];outlineConnect=0;gradientColor=none;html=1;whiteSpace=wrap;fontSize=12;fontStyle=0;shape=mxgraph.aws4.group;grIcon=mxgraph.aws4.group_security_group;grStroke=0;strokeColor=#248814;fillColor=#E9F3E6;verticalAlign=top;align=left;spacingLeft=30;fontColor=#248814;dashed=0;" parent="1" vertex="1">
          <mxGeometry x="810" y="-730" width="220" height="120" as="geometry" />
        </mxCell>
        <mxCell id="LaItV2IOD6dqQ0uIoYsW-12" value="Private subnet 3" style="points=[[0,0],[0.25,0],[0.5,0],[0.75,0],[1,0],[1,0.25],[1,0.5],[1,0.75],[1,1],[0.75,1],[0.5,1],[0.25,1],[0,1],[0,0.75],[0,0.5],[0,0.25]];outlineConnect=0;gradientColor=none;html=1;whiteSpace=wrap;fontSize=12;fontStyle=0;shape=mxgraph.aws4.group;grIcon=mxgraph.aws4.group_security_group;grStroke=0;strokeColor=#147EBA;fillColor=#E6F2F8;verticalAlign=top;align=left;spacingLeft=30;fontColor=#147EBA;dashed=0;" parent="1" vertex="1">
          <mxGeometry x="90" y="-600" width="220" height="560" as="geometry" />
        </mxCell>
        <mxCell id="LaItV2IOD6dqQ0uIoYsW-13" value="Private subnet 4" style="points=[[0,0],[0.25,0],[0.5,0],[0.75,0],[1,0],[1,0.25],[1,0.5],[1,0.75],[1,1],[0.75,1],[0.5,1],[0.25,1],[0,1],[0,0.75],[0,0.5],[0,0.25]];outlineConnect=0;gradientColor=none;html=1;whiteSpace=wrap;fontSize=12;fontStyle=0;shape=mxgraph.aws4.group;grIcon=mxgraph.aws4.group_security_group;grStroke=0;strokeColor=#147EBA;fillColor=#E6F2F8;verticalAlign=top;align=left;spacingLeft=30;fontColor=#147EBA;dashed=0;" parent="1" vertex="1">
          <mxGeometry x="810" y="-600" width="220" height="570" as="geometry" />
        </mxCell>
        <mxCell id="LaItV2IOD6dqQ0uIoYsW-17" value="Bastion-SG" style="fontStyle=0;verticalAlign=top;align=center;spacingTop=-2;fillColor=none;rounded=0;whiteSpace=wrap;html=1;strokeColor=#FF0000;strokeWidth=2;dashed=1;container=1;collapsible=0;expand=0;recursiveResize=0;" parent="1" vertex="1">
          <mxGeometry x="100" y="-700" width="200" height="90" as="geometry" />
        </mxCell>
        <mxCell id="LaItV2IOD6dqQ0uIoYsW-14" value="" style="outlineConnect=0;dashed=0;verticalLabelPosition=bottom;verticalAlign=top;align=center;html=1;shape=mxgraph.aws3.ec2;fillColor=#F58534;gradientColor=none;" parent="LaItV2IOD6dqQ0uIoYsW-17" vertex="1">
          <mxGeometry x="68.62" y="23" width="60.5" height="47" as="geometry" />
        </mxCell>
        <mxCell id="LaItV2IOD6dqQ0uIoYsW-15" value="Bastion Host" style="text;html=1;align=center;verticalAlign=middle;whiteSpace=wrap;rounded=0;labelBorderColor=#000000;" parent="LaItV2IOD6dqQ0uIoYsW-17" vertex="1">
          <mxGeometry x="32.5" y="70" width="135" height="20" as="geometry" />
        </mxCell>
        <mxCell id="LaItV2IOD6dqQ0uIoYsW-20" value="" style="outlineConnect=0;dashed=0;verticalLabelPosition=bottom;verticalAlign=top;align=center;html=1;shape=mxgraph.aws3.vpc_nat_gateway;fillColor=#F58534;gradientColor=none;" parent="1" vertex="1">
          <mxGeometry x="890" y="-693" width="60" height="56" as="geometry" />
        </mxCell>
        <mxCell id="LaItV2IOD6dqQ0uIoYsW-21" value="NAT Gateway" style="text;html=1;align=center;verticalAlign=middle;whiteSpace=wrap;rounded=0;labelBorderColor=#000000;" parent="1" vertex="1">
          <mxGeometry x="852.5" y="-630" width="135" height="20" as="geometry" />
        </mxCell>
        <mxCell id="LaItV2IOD6dqQ0uIoYsW-22" value="ALB-SG" style="fontStyle=0;verticalAlign=top;align=center;spacingTop=-2;fillColor=none;rounded=0;whiteSpace=wrap;html=1;strokeColor=#FF0000;strokeWidth=2;dashed=1;container=1;collapsible=0;expand=0;recursiveResize=0;" parent="1" vertex="1">
          <mxGeometry x="430" y="-740" width="260" height="100" as="geometry" />
        </mxCell>
        <mxCell id="LaItV2IOD6dqQ0uIoYsW-24" value="" style="outlineConnect=0;dashed=0;verticalLabelPosition=bottom;verticalAlign=top;align=center;html=1;shape=mxgraph.aws3.application_load_balancer;fillColor=#F58536;gradientColor=none;" parent="LaItV2IOD6dqQ0uIoYsW-22" vertex="1">
          <mxGeometry x="106.25" y="27.5" width="47.5" height="42.5" as="geometry" />
        </mxCell>
        <mxCell id="LaItV2IOD6dqQ0uIoYsW-25" value="Application Load Balancer" style="text;html=1;align=center;verticalAlign=middle;whiteSpace=wrap;rounded=0;labelBorderColor=#000000;" parent="LaItV2IOD6dqQ0uIoYsW-22" vertex="1">
          <mxGeometry x="18.75" y="70" width="222.5" height="30" as="geometry" />
        </mxCell>
        <mxCell id="LaItV2IOD6dqQ0uIoYsW-28" value="Presentation Layer SG" style="fontStyle=0;verticalAlign=top;align=center;spacingTop=-2;fillColor=none;rounded=0;whiteSpace=wrap;html=1;strokeColor=#FF0000;strokeWidth=2;dashed=1;container=1;collapsible=0;expand=0;recursiveResize=0;" parent="1" vertex="1">
          <mxGeometry x="100" y="-570" width="200" height="112" as="geometry" />
        </mxCell>
        <mxCell id="LaItV2IOD6dqQ0uIoYsW-29" value="" style="outlineConnect=0;dashed=0;verticalLabelPosition=bottom;verticalAlign=top;align=center;html=1;shape=mxgraph.aws3.ec2;fillColor=#F58534;gradientColor=none;" parent="LaItV2IOD6dqQ0uIoYsW-28" vertex="1">
          <mxGeometry x="68.62" y="23" width="60.5" height="60" as="geometry" />
        </mxCell>
        <mxCell id="LaItV2IOD6dqQ0uIoYsW-30" value="EC2 Instance" style="text;html=1;align=center;verticalAlign=middle;whiteSpace=wrap;rounded=0;labelBorderColor=#000000;" parent="LaItV2IOD6dqQ0uIoYsW-28" vertex="1">
          <mxGeometry x="32.5" y="83" width="135" height="20" as="geometry" />
        </mxCell>
        <mxCell id="LaItV2IOD6dqQ0uIoYsW-32" value="Presentation Layer SG" style="fontStyle=0;verticalAlign=top;align=center;spacingTop=-2;fillColor=none;rounded=0;whiteSpace=wrap;html=1;strokeColor=#FF0000;strokeWidth=2;dashed=1;container=1;collapsible=0;expand=0;recursiveResize=0;" parent="1" vertex="1">
          <mxGeometry x="820" y="-570" width="200" height="112" as="geometry" />
        </mxCell>
        <mxCell id="LaItV2IOD6dqQ0uIoYsW-33" value="" style="outlineConnect=0;dashed=0;verticalLabelPosition=bottom;verticalAlign=top;align=center;html=1;shape=mxgraph.aws3.ec2;fillColor=#F58534;gradientColor=none;" parent="LaItV2IOD6dqQ0uIoYsW-32" vertex="1">
          <mxGeometry x="68.62" y="23" width="60.5" height="60" as="geometry" />
        </mxCell>
        <mxCell id="LaItV2IOD6dqQ0uIoYsW-34" value="EC2 Instance" style="text;html=1;align=center;verticalAlign=middle;whiteSpace=wrap;rounded=0;labelBorderColor=#000000;" parent="LaItV2IOD6dqQ0uIoYsW-32" vertex="1">
          <mxGeometry x="32.5" y="83" width="135" height="20" as="geometry" />
        </mxCell>
        <mxCell id="LaItV2IOD6dqQ0uIoYsW-40" value="Frontend Auto Scaling Group" style="text;html=1;align=center;verticalAlign=middle;whiteSpace=wrap;rounded=0;labelBorderColor=#000000;" parent="1" vertex="1">
          <mxGeometry x="492.5" y="-580" width="135" height="30" as="geometry" />
        </mxCell>
        <mxCell id="LaItV2IOD6dqQ0uIoYsW-45" value="" style="edgeStyle=orthogonalEdgeStyle;rounded=0;orthogonalLoop=1;jettySize=auto;html=1;strokeWidth=3;entryX=0.5;entryY=0;entryDx=0;entryDy=0;exitX=0.5;exitY=1;exitDx=0;exitDy=0;" parent="1" source="LaItV2IOD6dqQ0uIoYsW-25" target="LaItV2IOD6dqQ0uIoYsW-39" edge="1">
          <mxGeometry relative="1" as="geometry">
            <mxPoint x="559.5" y="-630" as="sourcePoint" />
            <mxPoint x="559.5" y="-590" as="targetPoint" />
          </mxGeometry>
        </mxCell>
        <mxCell id="LaItV2IOD6dqQ0uIoYsW-46" value="ALB-SG" style="fontStyle=0;verticalAlign=top;align=center;spacingTop=-2;fillColor=none;rounded=0;whiteSpace=wrap;html=1;strokeColor=#FF0000;strokeWidth=2;dashed=1;container=1;collapsible=0;expand=0;recursiveResize=0;" parent="1" vertex="1">
          <mxGeometry x="430" y="-430" width="260" height="90" as="geometry" />
        </mxCell>
        <mxCell id="LaItV2IOD6dqQ0uIoYsW-47" value="" style="outlineConnect=0;dashed=0;verticalLabelPosition=bottom;verticalAlign=top;align=center;html=1;shape=mxgraph.aws3.application_load_balancer;fillColor=#F58536;gradientColor=none;" parent="LaItV2IOD6dqQ0uIoYsW-46" vertex="1">
          <mxGeometry x="106.25" y="17.5" width="47.5" height="42.5" as="geometry" />
        </mxCell>
        <mxCell id="LaItV2IOD6dqQ0uIoYsW-48" value="Internal Load Balancer" style="text;html=1;align=center;verticalAlign=middle;whiteSpace=wrap;rounded=0;labelBorderColor=#000000;" parent="LaItV2IOD6dqQ0uIoYsW-46" vertex="1">
          <mxGeometry x="40" y="60" width="192.5" height="30" as="geometry" />
        </mxCell>
        <mxCell id="LaItV2IOD6dqQ0uIoYsW-53" value="" style="edgeStyle=orthogonalEdgeStyle;rounded=0;orthogonalLoop=1;jettySize=auto;html=1;strokeWidth=3;entryX=0.5;entryY=0;entryDx=0;entryDy=0;exitX=0.5;exitY=1;exitDx=0;exitDy=0;" parent="1" source="LaItV2IOD6dqQ0uIoYsW-39" edge="1">
          <mxGeometry relative="1" as="geometry">
            <mxPoint x="559.5" y="-458" as="sourcePoint" />
            <mxPoint x="559.5" y="-428" as="targetPoint" />
          </mxGeometry>
        </mxCell>
        <mxCell id="LaItV2IOD6dqQ0uIoYsW-54" value="" style="points=[[0,0],[0.25,0],[0.5,0],[0.75,0],[1,0],[1,0.25],[1,0.5],[1,0.75],[1,1],[0.75,1],[0.5,1],[0.25,1],[0,1],[0,0.75],[0,0.5],[0,0.25]];outlineConnect=0;gradientColor=none;html=1;whiteSpace=wrap;fontSize=12;fontStyle=0;shape=mxgraph.aws4.groupCenter;grIcon=mxgraph.aws4.group_auto_scaling_group;grStroke=1;strokeColor=#D86613;fillColor=none;verticalAlign=top;align=center;fontColor=#D86613;dashed=1;spacingTop=25;" parent="1" vertex="1">
          <mxGeometry x="90" y="-320" width="940" height="130" as="geometry" />
        </mxCell>
        <mxCell id="LaItV2IOD6dqQ0uIoYsW-55" value="Backend Auto Scaling Group" style="text;html=1;align=center;verticalAlign=middle;whiteSpace=wrap;rounded=0;labelBorderColor=#000000;" parent="1" vertex="1">
          <mxGeometry x="492.5" y="-290" width="135" height="30" as="geometry" />
        </mxCell>
        <mxCell id="LaItV2IOD6dqQ0uIoYsW-56" value="Application Layer SG" style="fontStyle=0;verticalAlign=top;align=center;spacingTop=-2;fillColor=none;rounded=0;whiteSpace=wrap;html=1;strokeColor=#FF0000;strokeWidth=2;dashed=1;container=1;collapsible=0;expand=0;recursiveResize=0;" parent="1" vertex="1">
          <mxGeometry x="100" y="-311" width="200" height="112" as="geometry" />
        </mxCell>
        <mxCell id="LaItV2IOD6dqQ0uIoYsW-57" value="" style="outlineConnect=0;dashed=0;verticalLabelPosition=bottom;verticalAlign=top;align=center;html=1;shape=mxgraph.aws3.ec2;fillColor=#F58534;gradientColor=none;" parent="LaItV2IOD6dqQ0uIoYsW-56" vertex="1">
          <mxGeometry x="68.62" y="23" width="60.5" height="60" as="geometry" />
        </mxCell>
        <mxCell id="LaItV2IOD6dqQ0uIoYsW-58" value="EC2 Instance" style="text;html=1;align=center;verticalAlign=middle;whiteSpace=wrap;rounded=0;labelBorderColor=#000000;" parent="LaItV2IOD6dqQ0uIoYsW-56" vertex="1">
          <mxGeometry x="32.5" y="83" width="135" height="20" as="geometry" />
        </mxCell>
        <mxCell id="LaItV2IOD6dqQ0uIoYsW-59" value="Application Layer SG" style="fontStyle=0;verticalAlign=top;align=center;spacingTop=-2;fillColor=none;rounded=0;whiteSpace=wrap;html=1;strokeColor=#FF0000;strokeWidth=2;dashed=1;container=1;collapsible=0;expand=0;recursiveResize=0;" parent="1" vertex="1">
          <mxGeometry x="820" y="-311" width="200" height="112" as="geometry" />
        </mxCell>
        <mxCell id="LaItV2IOD6dqQ0uIoYsW-60" value="" style="outlineConnect=0;dashed=0;verticalLabelPosition=bottom;verticalAlign=top;align=center;html=1;shape=mxgraph.aws3.ec2;fillColor=#F58534;gradientColor=none;" parent="LaItV2IOD6dqQ0uIoYsW-59" vertex="1">
          <mxGeometry x="68.62" y="23" width="60.5" height="60" as="geometry" />
        </mxCell>
        <mxCell id="LaItV2IOD6dqQ0uIoYsW-61" value="EC2 Instance" style="text;html=1;align=center;verticalAlign=middle;whiteSpace=wrap;rounded=0;labelBorderColor=#000000;" parent="LaItV2IOD6dqQ0uIoYsW-59" vertex="1">
          <mxGeometry x="32.5" y="83" width="135" height="20" as="geometry" />
        </mxCell>
        <mxCell id="LaItV2IOD6dqQ0uIoYsW-83" style="edgeStyle=orthogonalEdgeStyle;rounded=0;orthogonalLoop=1;jettySize=auto;html=1;strokeWidth=3;entryX=1;entryY=0.5;entryDx=0;entryDy=0;" parent="1" source="LaItV2IOD6dqQ0uIoYsW-54" target="LaItV2IOD6dqQ0uIoYsW-62" edge="1">
          <mxGeometry relative="1" as="geometry" />
        </mxCell>
        <mxCell id="LaItV2IOD6dqQ0uIoYsW-85" style="edgeStyle=orthogonalEdgeStyle;rounded=0;orthogonalLoop=1;jettySize=auto;html=1;exitX=1;exitY=0.75;exitDx=0;exitDy=0;entryX=0;entryY=0.661;entryDx=0;entryDy=0;entryPerimeter=0;strokeWidth=3;" parent="1" source="LaItV2IOD6dqQ0uIoYsW-62" target="LaItV2IOD6dqQ0uIoYsW-65" edge="1">
          <mxGeometry relative="1" as="geometry" />
        </mxCell>
        <mxCell id="LaItV2IOD6dqQ0uIoYsW-62" value="Database Layer SG" style="fontStyle=0;verticalAlign=top;align=center;spacingTop=-2;fillColor=none;rounded=0;whiteSpace=wrap;html=1;strokeColor=#FF0000;strokeWidth=2;dashed=1;container=1;collapsible=0;expand=0;recursiveResize=0;" parent="1" vertex="1">
          <mxGeometry x="100" y="-160" width="200" height="112" as="geometry" />
        </mxCell>
        <mxCell id="LaItV2IOD6dqQ0uIoYsW-64" value="Master Database" style="text;html=1;align=center;verticalAlign=middle;whiteSpace=wrap;rounded=0;labelBorderColor=#000000;" parent="LaItV2IOD6dqQ0uIoYsW-62" vertex="1">
          <mxGeometry x="32.5" y="83" width="135" height="20" as="geometry" />
        </mxCell>
        <mxCell id="LaItV2IOD6dqQ0uIoYsW-65" value="Database Layer SG" style="fontStyle=0;verticalAlign=top;align=center;spacingTop=-2;fillColor=none;rounded=0;whiteSpace=wrap;html=1;strokeColor=#FF0000;strokeWidth=2;dashed=1;container=1;collapsible=0;expand=0;recursiveResize=0;" parent="1" vertex="1">
          <mxGeometry x="820" y="-150" width="200" height="112" as="geometry" />
        </mxCell>
        <mxCell id="LaItV2IOD6dqQ0uIoYsW-67" value="Standby Database" style="text;html=1;align=center;verticalAlign=middle;whiteSpace=wrap;rounded=0;labelBorderColor=#000000;" parent="LaItV2IOD6dqQ0uIoYsW-65" vertex="1">
          <mxGeometry x="32.5" y="83" width="135" height="20" as="geometry" />
        </mxCell>
        <mxCell id="LaItV2IOD6dqQ0uIoYsW-92" value="" style="outlineConnect=0;dashed=0;verticalLabelPosition=bottom;verticalAlign=top;align=center;html=1;shape=mxgraph.aws3.rds_db_instance_standby_multi_az;fillColor=#2E73B8;gradientColor=none;" parent="LaItV2IOD6dqQ0uIoYsW-65" vertex="1">
          <mxGeometry x="75.25" y="17" width="49.5" height="66" as="geometry" />
        </mxCell>
        <mxCell id="LaItV2IOD6dqQ0uIoYsW-69" style="edgeStyle=orthogonalEdgeStyle;rounded=0;orthogonalLoop=1;jettySize=auto;html=1;strokeWidth=3;" parent="1" source="LaItV2IOD6dqQ0uIoYsW-39" target="LaItV2IOD6dqQ0uIoYsW-46" edge="1">
          <mxGeometry relative="1" as="geometry" />
        </mxCell>
        <mxCell id="LaItV2IOD6dqQ0uIoYsW-39" value="" style="points=[[0,0],[0.25,0],[0.5,0],[0.75,0],[1,0],[1,0.25],[1,0.5],[1,0.75],[1,1],[0.75,1],[0.5,1],[0.25,1],[0,1],[0,0.75],[0,0.5],[0,0.25]];outlineConnect=0;gradientColor=none;html=1;whiteSpace=wrap;fontSize=12;fontStyle=0;shape=mxgraph.aws4.groupCenter;grIcon=mxgraph.aws4.group_auto_scaling_group;grStroke=1;strokeColor=#D86613;fillColor=none;verticalAlign=top;align=center;fontColor=#D86613;dashed=1;spacingTop=25;" parent="1" vertex="1">
          <mxGeometry x="90" y="-600" width="940" height="150" as="geometry" />
        </mxCell>
        <mxCell id="LaItV2IOD6dqQ0uIoYsW-68" value="" style="edgeStyle=orthogonalEdgeStyle;rounded=0;orthogonalLoop=1;jettySize=auto;html=1;strokeWidth=3;exitX=0.5;exitY=1;exitDx=0;exitDy=0;" parent="1" edge="1">
          <mxGeometry relative="1" as="geometry">
            <mxPoint x="560" y="-333" as="sourcePoint" />
            <mxPoint x="560" y="-320" as="targetPoint" />
            <Array as="points">
              <mxPoint x="560" y="-340" />
              <mxPoint x="560" y="-340" />
            </Array>
          </mxGeometry>
        </mxCell>
        <mxCell id="LaItV2IOD6dqQ0uIoYsW-80" value="" style="edgeStyle=orthogonalEdgeStyle;html=1;endArrow=none;elbow=vertical;startArrow=block;startFill=1;strokeColor=#545B64;rounded=0;" parent="1" edge="1">
          <mxGeometry width="100" relative="1" as="geometry">
            <mxPoint x="510" y="-340" as="sourcePoint" />
            <mxPoint x="610" y="-340" as="targetPoint" />
          </mxGeometry>
        </mxCell>
        <mxCell id="LaItV2IOD6dqQ0uIoYsW-82" value="" style="edgeStyle=orthogonalEdgeStyle;html=1;endArrow=block;elbow=vertical;startArrow=none;endFill=1;strokeColor=#545B64;rounded=0;" parent="1" edge="1">
          <mxGeometry width="100" relative="1" as="geometry">
            <mxPoint x="510" y="-340" as="sourcePoint" />
            <mxPoint x="610" y="-340" as="targetPoint" />
          </mxGeometry>
        </mxCell>
        <mxCell id="LaItV2IOD6dqQ0uIoYsW-91" value="" style="outlineConnect=0;dashed=0;verticalLabelPosition=bottom;verticalAlign=top;align=center;html=1;shape=mxgraph.aws3.rds_db_instance;fillColor=#2E73B8;gradientColor=none;" parent="1" vertex="1">
          <mxGeometry x="175.25" y="-140" width="49.5" height="66" as="geometry" />
        </mxCell>
        <mxCell id="LaItV2IOD6dqQ0uIoYsW-95" value="Custom&amp;nbsp;Route Table" style="shape=table;html=1;whiteSpace=wrap;startSize=30;container=1;collapsible=0;childLayout=tableLayout;fixedRows=1;rowLines=0;fontStyle=1;align=center;" parent="1" vertex="1">
          <mxGeometry x="10" y="-970" width="220.5" height="120" as="geometry" />
        </mxCell>
        <mxCell id="LaItV2IOD6dqQ0uIoYsW-96" value="" style="shape=partialRectangle;html=1;whiteSpace=wrap;collapsible=0;dropTarget=0;pointerEvents=0;fillColor=none;top=0;left=0;bottom=1;right=0;points=[[0,0.5],[1,0.5]];portConstraint=eastwest;" parent="LaItV2IOD6dqQ0uIoYsW-95" vertex="1">
          <mxGeometry y="30" width="220.5" height="30" as="geometry" />
        </mxCell>
        <mxCell id="LaItV2IOD6dqQ0uIoYsW-97" value="Destination" style="shape=partialRectangle;html=1;whiteSpace=wrap;connectable=0;fillColor=none;top=0;left=0;bottom=0;right=0;overflow=hidden;" parent="LaItV2IOD6dqQ0uIoYsW-96" vertex="1">
          <mxGeometry width="110" height="30" as="geometry" />
        </mxCell>
        <mxCell id="LaItV2IOD6dqQ0uIoYsW-98" value="Target" style="shape=partialRectangle;html=1;whiteSpace=wrap;connectable=0;fillColor=none;top=0;left=0;bottom=0;right=0;align=left;spacingLeft=6;overflow=hidden;" parent="LaItV2IOD6dqQ0uIoYsW-96" vertex="1">
          <mxGeometry x="110" width="111" height="30" as="geometry" />
        </mxCell>
        <mxCell id="LaItV2IOD6dqQ0uIoYsW-99" value="" style="shape=partialRectangle;html=1;whiteSpace=wrap;collapsible=0;dropTarget=0;pointerEvents=0;fillColor=none;top=0;left=0;bottom=0;right=0;points=[[0,0.5],[1,0.5]];portConstraint=eastwest;" parent="LaItV2IOD6dqQ0uIoYsW-95" vertex="1">
          <mxGeometry y="60" width="220.5" height="30" as="geometry" />
        </mxCell>
        <mxCell id="LaItV2IOD6dqQ0uIoYsW-100" value="10.0.0.0/16" style="shape=partialRectangle;html=1;whiteSpace=wrap;connectable=0;fillColor=none;top=1;left=1;bottom=1;right=1;overflow=hidden;" parent="LaItV2IOD6dqQ0uIoYsW-99" vertex="1">
          <mxGeometry width="110" height="30" as="geometry" />
        </mxCell>
        <mxCell id="LaItV2IOD6dqQ0uIoYsW-101" value="local" style="shape=partialRectangle;html=1;whiteSpace=wrap;connectable=0;fillColor=none;top=1;left=1;bottom=1;right=1;align=left;spacingLeft=6;overflow=hidden;" parent="LaItV2IOD6dqQ0uIoYsW-99" vertex="1">
          <mxGeometry x="110" width="111" height="30" as="geometry" />
        </mxCell>
        <mxCell id="LaItV2IOD6dqQ0uIoYsW-102" value="" style="shape=partialRectangle;html=1;whiteSpace=wrap;collapsible=0;dropTarget=0;pointerEvents=0;fillColor=none;top=0;left=0;bottom=0;right=0;points=[[0,0.5],[1,0.5]];portConstraint=eastwest;" parent="LaItV2IOD6dqQ0uIoYsW-95" vertex="1">
          <mxGeometry y="90" width="220.5" height="30" as="geometry" />
        </mxCell>
        <mxCell id="LaItV2IOD6dqQ0uIoYsW-103" value="0.0.0.0/0" style="shape=partialRectangle;html=1;whiteSpace=wrap;connectable=0;fillColor=none;top=0;left=0;bottom=0;right=0;overflow=hidden;" parent="LaItV2IOD6dqQ0uIoYsW-102" vertex="1">
          <mxGeometry width="110" height="30" as="geometry" />
        </mxCell>
        <mxCell id="LaItV2IOD6dqQ0uIoYsW-104" value="NAT Gateway id" style="shape=partialRectangle;html=1;whiteSpace=wrap;connectable=0;fillColor=none;top=0;left=0;bottom=0;right=0;align=left;spacingLeft=6;overflow=hidden;" parent="LaItV2IOD6dqQ0uIoYsW-102" vertex="1">
          <mxGeometry x="110" width="111" height="30" as="geometry" />
        </mxCell>
        <mxCell id="LaItV2IOD6dqQ0uIoYsW-105" value="Main Route Table" style="shape=table;html=1;whiteSpace=wrap;startSize=30;container=1;collapsible=0;childLayout=tableLayout;fixedRows=1;rowLines=0;fontStyle=1;align=center;" parent="1" vertex="1">
          <mxGeometry x="805" y="10" width="230" height="120" as="geometry" />
        </mxCell>
        <mxCell id="LaItV2IOD6dqQ0uIoYsW-106" value="" style="shape=partialRectangle;html=1;whiteSpace=wrap;collapsible=0;dropTarget=0;pointerEvents=0;fillColor=none;top=0;left=0;bottom=1;right=0;points=[[0,0.5],[1,0.5]];portConstraint=eastwest;" parent="LaItV2IOD6dqQ0uIoYsW-105" vertex="1">
          <mxGeometry y="30" width="230" height="30" as="geometry" />
        </mxCell>
        <mxCell id="LaItV2IOD6dqQ0uIoYsW-107" value="Destination" style="shape=partialRectangle;html=1;whiteSpace=wrap;connectable=0;fillColor=none;top=0;left=0;bottom=0;right=0;overflow=hidden;" parent="LaItV2IOD6dqQ0uIoYsW-106" vertex="1">
          <mxGeometry width="114" height="30" as="geometry" />
        </mxCell>
        <mxCell id="LaItV2IOD6dqQ0uIoYsW-108" value="Target" style="shape=partialRectangle;html=1;whiteSpace=wrap;connectable=0;fillColor=none;top=0;left=0;bottom=0;right=0;align=left;spacingLeft=6;overflow=hidden;" parent="LaItV2IOD6dqQ0uIoYsW-106" vertex="1">
          <mxGeometry x="114" width="116" height="30" as="geometry" />
        </mxCell>
        <mxCell id="LaItV2IOD6dqQ0uIoYsW-109" value="" style="shape=partialRectangle;html=1;whiteSpace=wrap;collapsible=0;dropTarget=0;pointerEvents=0;fillColor=none;top=0;left=0;bottom=0;right=0;points=[[0,0.5],[1,0.5]];portConstraint=eastwest;" parent="LaItV2IOD6dqQ0uIoYsW-105" vertex="1">
          <mxGeometry y="60" width="230" height="30" as="geometry" />
        </mxCell>
        <mxCell id="LaItV2IOD6dqQ0uIoYsW-110" value="10.0.0.0/16" style="shape=partialRectangle;html=1;whiteSpace=wrap;connectable=0;fillColor=none;top=1;left=1;bottom=1;right=1;overflow=hidden;" parent="LaItV2IOD6dqQ0uIoYsW-109" vertex="1">
          <mxGeometry width="114" height="30" as="geometry" />
        </mxCell>
        <mxCell id="LaItV2IOD6dqQ0uIoYsW-111" value="local" style="shape=partialRectangle;html=1;whiteSpace=wrap;connectable=0;fillColor=none;top=1;left=1;bottom=1;right=1;align=left;spacingLeft=6;overflow=hidden;" parent="LaItV2IOD6dqQ0uIoYsW-109" vertex="1">
          <mxGeometry x="114" width="116" height="30" as="geometry" />
        </mxCell>
        <mxCell id="LaItV2IOD6dqQ0uIoYsW-112" value="" style="shape=partialRectangle;html=1;whiteSpace=wrap;collapsible=0;dropTarget=0;pointerEvents=0;fillColor=none;top=0;left=0;bottom=0;right=0;points=[[0,0.5],[1,0.5]];portConstraint=eastwest;" parent="LaItV2IOD6dqQ0uIoYsW-105" vertex="1">
          <mxGeometry y="90" width="230" height="30" as="geometry" />
        </mxCell>
        <mxCell id="LaItV2IOD6dqQ0uIoYsW-113" value="0.0.0.0/0" style="shape=partialRectangle;html=1;whiteSpace=wrap;connectable=0;fillColor=none;top=0;left=0;bottom=0;right=0;overflow=hidden;" parent="LaItV2IOD6dqQ0uIoYsW-112" vertex="1">
          <mxGeometry width="114" height="30" as="geometry" />
        </mxCell>
        <mxCell id="LaItV2IOD6dqQ0uIoYsW-114" value="Internet Gateway id" style="shape=partialRectangle;html=1;whiteSpace=wrap;connectable=0;fillColor=none;top=0;left=0;bottom=0;right=0;align=left;spacingLeft=6;overflow=hidden;" parent="LaItV2IOD6dqQ0uIoYsW-112" vertex="1">
          <mxGeometry x="114" width="116" height="30" as="geometry" />
        </mxCell>
        <mxCell id="LaItV2IOD6dqQ0uIoYsW-154" style="edgeStyle=orthogonalEdgeStyle;rounded=0;orthogonalLoop=1;jettySize=auto;html=1;exitX=0;exitY=0.5;exitDx=0;exitDy=0;exitPerimeter=0;strokeWidth=3;" parent="1" source="LaItV2IOD6dqQ0uIoYsW-150" target="LaItV2IOD6dqQ0uIoYsW-95" edge="1">
          <mxGeometry relative="1" as="geometry">
            <Array as="points">
              <mxPoint x="20" y="-802" />
              <mxPoint x="20" y="70" />
            </Array>
          </mxGeometry>
        </mxCell>
        <mxCell id="LaItV2IOD6dqQ0uIoYsW-163" style="edgeStyle=orthogonalEdgeStyle;rounded=0;orthogonalLoop=1;jettySize=auto;html=1;exitX=0.855;exitY=0.145;exitDx=0;exitDy=0;exitPerimeter=0;strokeWidth=3;" parent="1" source="LaItV2IOD6dqQ0uIoYsW-150" target="LaItV2IOD6dqQ0uIoYsW-13" edge="1">
          <mxGeometry relative="1" as="geometry">
            <Array as="points">
              <mxPoint x="202" y="-802" />
              <mxPoint x="430" y="-802" />
              <mxPoint x="430" y="-470" />
            </Array>
          </mxGeometry>
        </mxCell>
        <mxCell id="LaItV2IOD6dqQ0uIoYsW-175" style="edgeStyle=orthogonalEdgeStyle;rounded=0;orthogonalLoop=1;jettySize=auto;html=1;strokeWidth=3;" parent="1" source="LaItV2IOD6dqQ0uIoYsW-150" target="LaItV2IOD6dqQ0uIoYsW-12" edge="1">
          <mxGeometry relative="1" as="geometry">
            <Array as="points">
              <mxPoint x="185" y="-760" />
              <mxPoint x="370" y="-760" />
              <mxPoint x="370" y="-470" />
            </Array>
          </mxGeometry>
        </mxCell>
        <mxCell id="LaItV2IOD6dqQ0uIoYsW-150" value="" style="outlineConnect=0;dashed=0;verticalLabelPosition=bottom;verticalAlign=top;align=center;html=1;shape=mxgraph.aws3.router;fillColor=#F58534;gradientColor=none;" parent="1" vertex="1">
          <mxGeometry x="160" y="-827" width="49" height="47" as="geometry" />
        </mxCell>
        <mxCell id="LaItV2IOD6dqQ0uIoYsW-167" style="edgeStyle=orthogonalEdgeStyle;rounded=0;orthogonalLoop=1;jettySize=auto;html=1;exitX=1;exitY=0.5;exitDx=0;exitDy=0;exitPerimeter=0;strokeWidth=3;" parent="1" source="LaItV2IOD6dqQ0uIoYsW-164" target="LaItV2IOD6dqQ0uIoYsW-105" edge="1">
          <mxGeometry relative="1" as="geometry" />
        </mxCell>
        <mxCell id="LaItV2IOD6dqQ0uIoYsW-168" style="edgeStyle=orthogonalEdgeStyle;rounded=0;orthogonalLoop=1;jettySize=auto;html=1;exitX=0.5;exitY=0;exitDx=0;exitDy=0;exitPerimeter=0;strokeWidth=3;" parent="1" source="LaItV2IOD6dqQ0uIoYsW-164" target="LaItV2IOD6dqQ0uIoYsW-11" edge="1">
          <mxGeometry relative="1" as="geometry">
            <Array as="points">
              <mxPoint x="735" y="-620" />
            </Array>
          </mxGeometry>
        </mxCell>
        <mxCell id="LaItV2IOD6dqQ0uIoYsW-174" style="edgeStyle=orthogonalEdgeStyle;rounded=0;orthogonalLoop=1;jettySize=auto;html=1;strokeWidth=3;" parent="1" source="LaItV2IOD6dqQ0uIoYsW-164" target="LaItV2IOD6dqQ0uIoYsW-10" edge="1">
          <mxGeometry relative="1" as="geometry">
            <Array as="points">
              <mxPoint x="690" y="70" />
              <mxPoint x="690" y="-620" />
            </Array>
          </mxGeometry>
        </mxCell>
        <mxCell id="LaItV2IOD6dqQ0uIoYsW-164" value="" style="outlineConnect=0;dashed=0;verticalLabelPosition=bottom;verticalAlign=top;align=center;html=1;shape=mxgraph.aws3.router;fillColor=#F58534;gradientColor=none;" parent="1" vertex="1">
          <mxGeometry x="710" y="45" width="50" height="50" as="geometry" />
        </mxCell>
      </root>
    </mxGraphModel>
  </diagram>
</mxfile>
